<svg data-v-fde0c5aa="" xmlns="http://www.w3.org/2000/svg" viewBox="0 0 300 300" class="font"><!----><defs data-v-fde0c5aa=""><!----></defs><rect data-v-fde0c5aa="" fill="#D2EAF5" x="0" y="0" width="300px" height="300px" class="logo-background-square"></rect><defs data-v-fde0c5aa=""><linearGradient data-v-fde0c5aa="" gradientTransform="rotate(25)" id="769af44a-b2b9-400c-8a68-246f0276b7be" x1="0%" y1="0%" x2="100%" y2="0%"><stop data-v-fde0c5aa="" offset="0%" stop-color="#000A68" stop-opacity="1"></stop><stop data-v-fde0c5aa="" offset="100%" stop-color="#00C4EE" stop-opacity="1"></stop></linearGradient></defs><g data-v-fde0c5aa="" id="04a31e9e-94ab-4ab3-bf05-70a54dca0aea" fill="url(#769af44a-b2b9-400c-8a68-246f0276b7be)" transform="matrix(5.001136302947998,0,0,5.001136302947998,37.89952276450209,107.31530132335044)"><path d="M6.85 3.29L6.31 3.29L6.31 7.70L5.89 6.85C5.35 6.26 4.69 6.01 3.84 6.01C2.03 6.01 0.42 7.32 0.42 9.95C0.42 12.18 1.67 13.78 3.65 13.78C4.59 13.78 5.28 13.52 5.88 12.85L6.31 12.01L6.31 13.58L6.85 13.58ZM3.71 13.33C1.95 13.33 1.01 11.75 1.01 9.88C1.01 7.81 2.18 6.45 3.84 6.45C4.97 6.45 6.31 7.17 6.31 9.45L6.31 10.16C6.31 12.52 5.11 13.33 3.71 13.33ZM14.45 6.20L13.92 6.20L13.92 10.29C13.92 12.39 12.74 13.31 11.44 13.31C10.14 13.31 9.48 12.54 9.34 11.40C9.30 11.02 9.28 10.68 9.28 10.23L9.28 6.20L8.75 6.20L8.75 10.37C8.75 10.98 8.76 11.23 8.81 11.61C8.97 12.94 9.87 13.78 11.37 13.78C12.24 13.78 13.01 13.45 13.58 12.77L13.92 12.00L13.92 13.58L14.45 13.58ZM18.90 6.01C18.30 6.01 17.77 6.30 17.40 6.80L17.01 7.70L17.01 6.20L16.48 6.20L16.48 13.58L17.01 13.58L17.01 9.49C17.01 7.25 17.95 6.38 19.28 6.48L19.28 6.05C19.17 6.02 19.04 6.01 18.90 6.01ZM24.93 13.58L25.48 13.58C25.40 12.64 25.35 12.10 25.35 11.33L25.35 8.92C25.35 8.55 25.35 8.32 25.33 7.95C25.21 6.72 24.43 6.01 22.90 6.01C21.41 6.01 20.33 6.97 20.23 8.29L20.78 8.29C20.93 7 21.88 6.45 22.90 6.45C24.07 6.45 24.71 7.01 24.79 8.01C24.82 8.32 24.82 8.61 24.82 8.95L24.82 9.28L24.35 9.28C21.90 9.28 19.94 10.05 19.94 11.76C19.94 13.09 20.86 13.78 22.25 13.78C23.17 13.78 23.98 13.43 24.49 12.71L24.84 11.97ZM22.37 13.33C21.14 13.33 20.52 12.73 20.52 11.73C20.52 10.15 22.69 9.59 24.82 9.73L24.82 10.68C24.82 12.11 23.84 13.33 22.37 13.33ZM33.01 8.25C32.87 6.85 31.98 6.01 30.45 6.01C29.58 6.01 28.80 6.31 28.24 7.01L27.90 7.78L27.90 6.20L27.37 6.20L27.37 13.58L27.90 13.58L27.90 9.49C27.90 7.38 29.09 6.47 30.39 6.47C31.72 6.47 32.35 7.25 32.48 8.40C32.52 8.78 32.54 9.10 32.54 9.59L32.54 13.58L33.07 13.58L33.07 9.46C33.07 8.86 33.05 8.62 33.01 8.25ZM35.83 12.43C35.81 12.24 35.81 12.05 35.81 11.69L35.81 6.68L37.24 6.68L37.24 6.26L35.81 6.26L35.81 4.69L35.28 4.69L35.28 6.26L34.37 6.26L34.37 6.68L35.28 6.68L35.28 11.66C35.28 12.08 35.28 12.33 35.31 12.64C35.36 13.36 35.74 13.68 36.47 13.68C36.74 13.68 37.03 13.66 37.25 13.64L37.25 13.22C36.20 13.37 35.88 13.16 35.83 12.43ZM44.41 9.69C44.41 7.77 43.39 6.01 41.30 6.01C39.42 6.01 37.95 7.53 37.95 9.87C37.95 12.46 39.41 13.78 41.17 13.78C42.60 13.78 43.89 12.95 44.30 11.28L43.75 11.28C43.39 12.68 42.32 13.33 41.20 13.33C39.91 13.33 38.60 12.43 38.51 10.04L44.39 10.04C44.41 9.86 44.41 9.76 44.41 9.69ZM41.27 6.45C42.52 6.45 43.78 7.29 43.86 9.58L38.51 9.58C38.60 7.46 39.98 6.45 41.27 6.45Z"></path></g><!----><!----></svg>